<svg xmlns="http://www.w3.org/2000/svg" viewBox="0 0 256 256" width="256" height="256">
  <defs><linearGradient id="v" x1="0" y1="0" x2="1" y2="1">
    <stop offset="0" stop-color="#A78BFF"/><stop offset="1" stop-color="#6D4AFF"/></linearGradient></defs>
  <rect width="256" height="256" rx="56" fill="#16121F"/>
  <g fill="#FFFFFF" opacity="0.11">
    <circle cx="32" cy="32" r="2"/>
    <circle cx="64" cy="32" r="2"/>
    <circle cx="96" cy="32" r="2"/>
    <circle cx="128" cy="32" r="2"/>
    <circle cx="160" cy="32" r="2"/>
    <circle cx="192" cy="32" r="2"/>
    <circle cx="224" cy="32" r="2"/>
    <circle cx="32" cy="64" r="2"/>
    <circle cx="64" cy="64" r="2"/>
    <circle cx="96" cy="64" r="2"/>
    <circle cx="128" cy="64" r="2"/>
    <circle cx="160" cy="64" r="2"/>
    <circle cx="192" cy="64" r="2"/>
    <circle cx="224" cy="64" r="2"/>
    <circle cx="32" cy="96" r="2"/>
    <circle cx="64" cy="96" r="2"/>
    <circle cx="96" cy="96" r="2"/>
    <circle cx="128" cy="96" r="2"/>
    <circle cx="160" cy="96" r="2"/>
    <circle cx="192" cy="96" r="2"/>
    <circle cx="224" cy="96" r="2"/>
    <circle cx="32" cy="128" r="2"/>
    <circle cx="64" cy="128" r="2"/>
    <circle cx="96" cy="128" r="2"/>
    <circle cx="128" cy="128" r="2"/>
    <circle cx="160" cy="128" r="2"/>
    <circle cx="192" cy="128" r="2"/>
    <circle cx="224" cy="128" r="2"/>
    <circle cx="32" cy="160" r="2"/>
    <circle cx="64" cy="160" r="2"/>
    <circle cx="96" cy="160" r="2"/>
    <circle cx="128" cy="160" r="2"/>
    <circle cx="160" cy="160" r="2"/>
    <circle cx="192" cy="160" r="2"/>
    <circle cx="224" cy="160" r="2"/>
    <circle cx="32" cy="192" r="2"/>
    <circle cx="64" cy="192" r="2"/>
    <circle cx="96" cy="192" r="2"/>
    <circle cx="128" cy="192" r="2"/>
    <circle cx="160" cy="192" r="2"/>
    <circle cx="192" cy="192" r="2"/>
    <circle cx="224" cy="192" r="2"/>
    <circle cx="32" cy="224" r="2"/>
    <circle cx="64" cy="224" r="2"/>
    <circle cx="96" cy="224" r="2"/>
    <circle cx="128" cy="224" r="2"/>
    <circle cx="160" cy="224" r="2"/>
    <circle cx="192" cy="224" r="2"/>
    <circle cx="224" cy="224" r="2"/>
  </g>
  <g fill="none" stroke="#9B85F0" stroke-opacity="0.85" stroke-width="13" stroke-linecap="round" stroke-linejoin="round">
    <path d="M84 98 L62 128 L84 158"/>
    <path d="M172 98 L194 128 L172 158"/>
  </g>
  <path d="M104 86 L104 170 L170 128 Z" fill="url(#v)" stroke="url(#v)" stroke-width="16" stroke-linejoin="round"/>
  <rect width="256" height="256" rx="56" fill="none" stroke="#FFFFFF" stroke-opacity="0.08" stroke-width="2"/>
</svg>
